<?xml version="1.0"?>
<svg xmlns="http://www.w3.org/2000/svg" xmlns:xlink="http://www.w3.org/1999/xlink" version="1.1" id="Layer_1" x="0px" y="0px" viewBox="0 0 496.182 496.182" style="enable-background:new 0 0 496.182 496.182;" xml:space="preserve" width="512px" height="512px" class=""><g><path style="fill:#B8A7BD" d="M248.1,0.002C111.082,0.002,0,111.065,0,248.093C0,385.104,111.082,496.18,248.1,496.18  c137.006,0,248.082-111.076,248.082-248.087C496.182,111.066,385.106,0.002,248.1,0.002z" data-original="#BC9DC6" class="" data-old_color="#BC9DC6"/><g>
	<path style="fill:#000000" d="M350.119,105.28c0,0-0.9,1.299-3,3c-16.932,13.716-39.381,32.674-67,32   c-33.563-0.818-45.975-26.513-59-52c1.781,30.525,7.836,51.988,25,68c34.574,32.251,107.842,16.108,132-17L350.119,105.28z" data-original="#5E4F63" class="active-path" data-old_color="#5E4F63"/>
	<polygon style="fill:#000000" points="281.119,70.28 252.119,102.28 283.119,131.28 314.119,100.28  " data-original="#5E4F63" class="active-path" data-old_color="#5E4F63"/>
	<path style="fill:#000000" d="M378.119,197.28c-16.295-15.676-48.971-24.158-74-10c-13.088,7.403-23.666,23.685-33,41   c-7.836,14.534-17.832,37-36,37c-3.877,0-19.504-10.046-27-11c18.211-15.709,39.381-29.946,38-63   c-1.184-28.313-24.049-49.114-52-52c-33.373-3.445-63.646,13.774-86,27l24,43c15.115-6.448,26.994-22.622,48-25   c19.348-2.19,40.082,4.078,42,18c4.342,31.512-39.633,33.59-70,28l17,54c16.625-6.248,41.08-7.788,52,3   c22.611,22.342,0.08,60.721-21,68c-11.129,3.843-25.393,4.761-36,4c-55.182-3.956-75.426-57.086-83-111   c-2.941,1.725,0.941,10.275-2,12v21c5.121,69.877,39.615,113.414,100,125c25.789,4.948,52.693-11.104,64-23   c26.121-27.483,18.117-73.511,5-103c21.85,1.93,34.492,1.164,46-6c22.074-13.742,24.9-48.355,46-60   c47.578-26.257,52.846,56.764,38,85c-18.184,34.585-91.604,46.104-96-9c-9.268,38.115,3.438,72.872,28,85   c50.49,24.93,91.789-32.719,97-76S395.041,213.56,378.119,197.28z" data-original="#5E4F63" class="active-path" data-old_color="#5E4F63"/>
</g></g> </svg>
